<svg width="18" height="18" viewBox="0 0 18 18" fill="none" xmlns="http://www.w3.org/2000/svg">
<path d="M17.1623 9.35083L17.1372 8.47263H9.21246V10.756H14.5541C13.9272 13.516 11.9711 15.2222 9.36292 15.2222C5.92718 15.2222 3.14349 12.4371 3.14349 8.99955C3.14349 5.56201 5.92718 2.77686 9.36292 2.77686C10.993 2.77686 12.4726 3.40415 13.6012 4.4329L15.3567 2.92741C13.8269 1.42192 11.6952 0.468445 9.36292 0.468445C4.64819 0.468445 0.836275 4.28235 0.836275 8.99955C0.836275 13.7167 4.64819 17.5307 9.36292 17.5307C13.9021 17.5307 17.1623 14.068 17.1623 9.35083Z" fill="#191919"/>
<path d="M9.36371 17.6566C4.59882 17.6566 0.71167 13.7674 0.71167 9C0.71167 4.23262 4.59882 0.343445 9.36371 0.343445C11.6458 0.343445 13.8026 1.22165 15.4327 2.8275L15.533 2.92787L13.602 4.60899L13.5267 4.53372C12.3982 3.47988 10.9186 2.90278 9.38878 2.90278C6.02828 2.90278 3.29474 5.63775 3.29474 9C3.29474 12.3623 6.02828 15.0972 9.38878 15.0972C11.8966 15.0972 13.7775 13.5165 14.4295 10.8819H9.11293V8.34763H17.2634L17.2885 9.35128C17.2885 14.1688 13.9531 17.6566 9.36371 17.6566ZM9.36371 0.59436C4.72421 0.59436 0.962454 4.35808 0.962454 9C0.962454 13.6419 4.72421 17.4056 9.36371 17.4056C13.8026 17.4056 17.0377 14.0183 17.0377 9.37638V8.62363H9.36371V10.656H14.7305L14.7054 10.8066C14.0534 13.667 12.0722 15.3732 9.38878 15.3732C5.90289 15.3732 3.04396 12.5379 3.04396 9.0251C3.04396 5.53738 5.87781 2.67695 9.38878 2.67695C10.9436 2.67695 12.4484 3.25406 13.627 4.3079L15.1819 2.95296C13.602 1.42238 11.5455 0.59436 9.36371 0.59436Z" fill="#191919"/>
</svg>
