<svg width="161" height="56" viewBox="0 0 161 56" fill="none" xmlns="http://www.w3.org/2000/svg">
<path d="M25.2102 1.37063L46.3106 21.9301L47.7139 23.3007L46.3106 24.6713L25.2102 45.2797L23.8069 46.6503L22.4536 45.2797L1.35323 24.6713L0 23.3007L1.35323 21.9301L22.5037 1.37063L23.857 0L25.2102 1.37063Z" fill="#FEF35B"/>
<path d="M46.3106 21.9301L25.2102 1.37063L23.857 0L22.5037 1.37063L1.35323 21.9301L0 23.3007L1.35323 24.6713L22.4536 45.2797L23.8069 46.6503L25.2102 45.2797L46.3106 24.6713L47.7139 23.3007L46.3106 21.9301ZM23.857 41.1678L5.51317 23.3007L23.857 5.38461L42.1507 23.3007L23.857 41.1678Z" fill="#1A1A1A"/>
<path d="M26.0121 18.944H21.5013V32.8461H26.0121V18.944Z" fill="#1A1A1A"/>
<path d="M21.4518 15.6155C21.4518 16.2519 21.7024 16.7414 22.1535 17.2309C22.6045 17.6715 23.1559 17.9162 23.8074 17.9162C24.459 17.9162 25.0103 17.6715 25.4614 17.2309C25.9124 16.7903 26.163 16.2519 26.163 15.6155C26.163 14.9792 25.9124 14.4407 25.4614 14.0001C25.0103 13.5596 24.459 13.3148 23.8074 13.3148C23.1559 13.3148 22.5544 13.5596 22.1033 14.0001C21.7024 14.4407 21.4518 14.9792 21.4518 15.6155Z" fill="#1A1A1A"/>
<path d="M43.6037 38.8179H40.1956V55.8529H43.6037V38.8179Z" fill="#1A1A1A"/>
<path d="M57.5885 49.2445L50.672 38.8179H47.6648V55.8529H51.0729V45.4263L57.9393 55.8529H60.9966V38.8179H57.5885V49.2445Z" fill="#1A1A1A"/>
<path d="M65.0553 55.8531H68.4634V48.951H75.3298V45.965H68.4634V41.8042H76.5327V38.8182H65.0553V55.8531Z" fill="#1A1A1A"/>
<path d="M84.8526 38.6713C82.8478 38.6713 81.3442 39.3566 80.1413 40.5315C78.3872 42.2448 78.4373 44.3986 78.4373 47.3357C78.4373 50.2727 78.3872 52.4266 80.1413 54.1399C81.3442 55.3147 82.8979 56 84.8526 56C86.8574 56 88.3109 55.3147 89.5638 54.1399C91.318 52.4266 91.318 50.2727 91.318 47.3357C91.318 44.3986 91.318 42.2448 89.5638 40.5315C88.361 39.3566 86.8574 38.6713 84.8526 38.6713ZM87.0579 52.1329C86.5567 52.6713 85.8049 53.0629 84.9027 53.0629C83.9504 53.0629 83.1986 52.7203 82.6975 52.1329C82.0459 51.3986 81.8454 50.6154 81.8454 47.3357C81.8454 44.0559 81.9958 43.2727 82.6975 42.5385C83.1986 42 83.9504 41.6084 84.9027 41.6084C85.855 41.6084 86.6068 41.951 87.0579 42.5385C87.7094 43.2727 87.9099 44.0559 87.9099 47.3357C87.9099 50.6154 87.7094 51.3986 87.0579 52.1329Z" fill="#1A1A1A"/>
<path d="M110.865 41.4613V38.8179H99.7385V41.8039H106.855L99.4377 53.1606V55.8529H110.865V52.9158H103.397L110.865 41.4613Z" fill="#1A1A1A"/>
<path d="M119.735 38.6716C117.73 38.6716 116.227 39.3569 115.024 40.5317C113.27 42.245 113.32 44.3988 113.32 47.3359C113.32 50.273 113.27 52.4268 115.024 54.1401C116.227 55.3149 117.78 56.0002 119.735 56.0002C121.74 56.0002 123.193 55.3149 124.446 54.1401C126.2 52.4268 126.2 50.273 126.2 47.3359C126.2 44.3988 126.2 42.245 124.446 40.5317C123.193 39.3569 121.74 38.6716 119.735 38.6716ZM121.94 52.1331C121.439 52.6716 120.687 53.0632 119.785 53.0632C118.833 53.0632 118.081 52.7205 117.58 52.1331C116.928 51.3988 116.728 50.6156 116.728 47.3359C116.728 44.0562 116.878 43.273 117.58 42.5387C118.081 42.0002 118.833 41.6086 119.785 41.6086C120.737 41.6086 121.489 41.9513 121.99 42.5387C122.642 43.273 122.842 44.0562 122.842 47.3359C122.792 50.6156 122.592 51.3988 121.94 52.1331Z" fill="#1A1A1A"/>
<path d="M139.584 38.8179V49.2445L132.667 38.8179H129.66V55.8529H133.068V45.4263L139.985 55.8529H142.992V38.8179H139.584Z" fill="#1A1A1A"/>
<path d="M154.168 38.8179H151.511L145.146 55.8529H148.705L149.757 52.8179H155.972L157.024 55.8529H160.583L154.168 38.8179ZM150.709 50.0277L152.915 43.8109L155.07 50.0277H150.709Z" fill="#1A1A1A"/>
</svg>
