<svg width="18" height="14" viewBox="0 0 18 14" fill="none" xmlns="http://www.w3.org/2000/svg">
<path d="M0.435791 12.3943C2.31667 12.57 4.022 12.0932 5.57686 10.939C4.79943 10.8888 4.12231 10.663 3.54551 10.2114C2.9687 9.75972 2.54237 9.20771 2.31667 8.48006C2.84331 8.55533 3.3198 8.55533 3.82137 8.42988C3.01886 8.22914 2.36682 7.80259 1.86525 7.1753C1.36369 6.52292 1.1129 5.79527 1.08782 4.94216C1.56431 5.16798 2.06588 5.34362 2.6176 5.36871C1.06275 4.06396 0.736725 2.50829 1.58939 0.651518C3.52042 2.90975 5.90288 4.16432 8.83704 4.36506C8.83704 4.01378 8.78689 3.66249 8.81196 3.31121C8.8872 2.15701 9.43892 1.22862 10.417 0.601333C11.8464 -0.30196 13.5518 -0.126319 14.7806 1.05298C14.8558 1.12826 14.9311 1.15335 15.0314 1.12826C15.7587 0.952616 16.4358 0.7017 17.1129 0.300236C16.837 1.12826 16.3355 1.73045 15.6584 2.20719C16.3104 2.13191 16.9374 1.95627 17.5643 1.73045C17.4389 1.90609 17.3135 2.08173 17.1881 2.23228C16.837 2.68393 16.4107 3.0603 15.9593 3.41158C15.9091 3.46176 15.859 3.56213 15.859 3.6374C15.8841 6.67347 14.8057 9.2579 12.6239 11.3656C11.2696 12.6703 9.61447 13.4733 7.75867 13.7995C6.63014 14.0002 5.50162 14.0253 4.34801 13.8747C2.9687 13.674 1.66463 13.1973 0.485943 12.4445C0.460865 12.4445 0.460869 12.4445 0.435791 12.3943Z" fill="#191919"/>
</svg>
